<svg width="61" height="56" viewBox="0 0 61 56" fill="none" xmlns="http://www.w3.org/2000/svg">
<g clip-path="url(#clip0_167_24)">
<path d="M24.8863 1.55482C24.8863 1.55482 21.5217 3.71262 20.2895 6.1109C19.0573 8.50918 19.3295 27.83 19.3425 33.9352C19.3554 40.0404 18.8913 39.9504 19.671 43.1172C20.4507 46.2839 21.0802 52.2342 21.6237 53.0825C22.1673 53.9308 25.9679 56.1649 31.9906 56.1532C38.0132 56.1415 42.1049 54.1234 42.7983 52.9633C43.4916 51.8032 44.7882 43.1446 44.9371 40.4393C45.0861 37.7339 44.9299 37.0519 44.9217 32.9553C44.9134 28.8587 44.942 8.92078 44.9435 7.53058C44.945 6.14038 41.1542 2.36063 39.8424 1.43921C38.5306 0.517789 27.1238 0.392362 24.8863 1.55482Z" fill="#188F99"/>
<path d="M22.1844 26.0457C22.1844 26.0457 23.2682 26.8803 22.8255 38.7806C22.8255 38.7806 27.3935 42.7902 32.1848 42.7794C36.9761 42.7685 41.4542 38.743 41.4542 38.743C41.3419 34.4917 41.4882 30.2376 41.8923 26.0041C42.5691 17.6575 25.0441 15.2962 22.1844 26.0457Z" fill="#188F99"/>
<path d="M22.624 26.3539C22.624 26.3539 32.5523 23.3984 41.0128 26.3164L41.0286 35.1773L23.311 35.2158C23.311 35.2158 22.5264 28.2801 22.624 26.3539Z" fill="#188F99"/>
<path d="M20.8545 17.5472C19.9198 21.7117 43.2035 23.2197 43.1898 17.2417C43.1898 17.2417 43.327 11.5691 43.1984 10.6494C42.7252 7.37786 41.579 4.23997 39.8321 1.43373C38.5166 0.509358 27.1236 0.391112 24.8869 1.55416C24.8869 1.55416 21.4119 6.46933 20.9588 11.7235C20.755 13.658 20.7201 15.6066 20.8545 17.5472V17.5472Z" fill="url(#paint0_linear_167_24)"/>
<path d="M22.1844 26.0458C28.6322 24.2747 35.4363 24.2608 41.8912 26.0056C41.8912 26.0056 44.2683 17.114 42.6431 15.5716C41.0179 14.0292 39.5561 13.0271 31.9006 13.0424C24.2452 13.0578 21.1574 14.8426 20.8532 17.5473C20.5491 20.2519 22.1844 26.0458 22.1844 26.0458Z" fill="#0D0D0E"/>
<path d="M41.2201 24.8765C38.2034 24.1464 35.1095 23.783 32.0057 23.7944C28.9163 23.7853 25.8374 24.1553 22.838 24.8961C22.3328 22.9189 21.577 19.4068 21.7755 17.6508C22.1122 14.6271 27.4697 13.9789 31.9025 13.9704C39.5908 13.9551 40.7099 15.0157 42.0054 16.2445C42.0122 16.2499 42.6562 16.9198 41.9651 21.2041C41.7319 22.6384 41.424 24.0157 41.2201 24.8765Z" fill="url(#paint1_linear_167_24)"/>
<path style="mix-blend-mode:color-dodge" d="M22.9939 54.1396C25.7793 55.544 28.8695 56.2355 31.9878 56.1522C35.2555 56.2418 38.4958 55.5325 41.4272 54.0857L41.4534 54.0709L42.0144 48.4043L22.3848 48.4439L22.9939 54.1396Z" fill="url(#paint2_linear_167_24)"/>
<path d="M20.2446 21.1011C21.1237 24.0653 21.6227 27.1291 21.7298 30.219C21.7353 32.7188 21.7374 32.7192 21.7374 32.7192L20.2696 34.2676L20.2446 21.1011Z" fill="#040506"/>
<path d="M20.271 35.0745L21.7388 33.4591C21.7388 33.4591 21.762 45.9596 21.0289 46.1282L20.271 35.0745Z" fill="#040506"/>
<path d="M43.7638 21.0535C42.8954 24.0211 42.4075 27.0869 42.3118 30.1774C42.3167 32.678 42.3146 32.6776 42.3146 32.6776L43.7888 34.2201L43.7638 21.0535Z" fill="#040506"/>
<path d="M43.7894 35.0263L42.3152 33.4168C42.3152 33.4168 42.3432 45.9173 43.077 46.0828L43.7894 35.0263Z" fill="#040506"/>
<path d="M19.6683 23.8316C18.5703 24.0862 17.5347 24.5587 16.6228 25.2211C15.1011 26.3244 14.9063 27.482 15.3579 28.2159C15.3579 28.2159 15.4709 28.3565 15.9223 28.2149C16.8571 27.9331 17.7486 27.5235 18.5713 26.9978C18.6276 26.7435 18.1037 25.4151 20.0635 25.0194C20.0659 25.0163 20.0915 23.9444 19.6683 23.8316Z" fill="url(#paint3_linear_167_24)"/>
<path d="M18.282 26.7607C17.9885 26.647 17.8489 26.8179 16.5897 27.4605C15.3305 28.103 15.3581 28.2158 15.3581 28.2158C15.3581 28.2158 15.4723 28.3562 15.9238 28.2147C16.7876 27.9266 17.6255 27.5661 18.4286 27.137L18.5746 26.9954C18.5746 26.9954 18.5754 26.8743 18.282 26.7607Z" fill="url(#paint4_linear_167_24)"/>
<path d="M44.631 23.7811C45.73 24.031 46.7675 24.4993 47.6819 25.158C49.2081 26.2554 49.4082 27.4124 48.9573 28.1484C48.9573 28.1484 48.8463 28.2905 48.3924 28.1501C47.4561 27.8708 46.5629 27.4638 45.7379 26.9405C45.6819 26.6849 46.1977 25.3532 44.2373 24.9659C44.2373 24.9659 44.2076 23.8946 44.631 23.7811Z" fill="url(#paint5_linear_167_24)"/>
<path d="M46.0275 26.7052C46.322 26.5884 46.4641 26.7603 47.7238 27.3963C48.9835 28.0323 48.9616 28.1491 48.9616 28.1491C48.9616 28.1491 48.8505 28.2912 48.3966 28.1508C47.5304 27.8657 46.6899 27.5076 45.8842 27.0802L45.7385 26.9396C45.7385 26.9396 45.7367 26.8189 46.0275 26.7052Z" fill="url(#paint6_linear_167_24)"/>
<path d="M22.8285 38.783C22.8285 38.783 24.5322 40.4025 32.1829 40.3871C39.8336 40.3717 41.4543 38.7444 41.4543 38.7444L42.015 48.4036C42.015 48.4036 39.0058 50.6503 32.2045 50.6647C25.4031 50.679 22.3848 48.4439 22.3848 48.4439L22.8285 38.783Z" fill="#0D0D0E"/>
<path d="M32.202 49.7375C27.14 49.7475 24.3172 48.4867 23.3361 47.9429L23.6895 40.2627C25.0863 40.7745 27.6429 41.3258 32.1853 41.3141C36.6948 41.3071 39.2268 40.7509 40.6137 40.23L41.0534 47.9079C40.0637 48.4517 37.2107 49.7274 32.202 49.7375Z" fill="url(#paint7_linear_167_24)"/>
<path d="M22.6689 48.9591C22.6689 48.9591 23.1647 53.3867 23.3477 53.9034C23.5307 54.4201 26.9076 55.8021 32.2179 55.7939C35.2763 55.8279 38.3029 55.1701 41.0714 53.8697L41.6312 48.9229C35.5608 51.4266 28.7488 51.4396 22.6689 48.9591H22.6689Z" fill="#188F99"/>
<path d="M21.3644 15.2273C21.4555 10.5761 22.7204 6.02325 25.0417 1.99165C29.6347 0.895897 34.3998 0.724549 39.0597 1.48757C39.0597 1.48757 42.0343 8.28767 41.9377 11.5805C41.8411 14.8733 41.9456 14.311 41.9456 14.311C41.9456 14.311 29.0281 9.18415 21.3644 15.2273Z" fill="#188F99"/>
<path d="M26.7635 1.06396C28.4855 1.92554 30.4028 2.32196 32.3253 2.21391C36.055 2.20631 37.5713 0.930808 37.5713 0.930808C33.9802 0.470114 30.3422 0.514936 26.7635 1.06396V1.06396Z" fill="url(#paint8_linear_167_24)"/>
<g style="mix-blend-mode:overlay">
<path style="mix-blend-mode:overlay" d="M36.2926 14.1269C31.9834 17.7245 27.1696 21.7933 23.7715 24.6735C25.538 24.2878 27.33 24.0301 29.1337 23.9023L39.8447 14.8047C38.6959 14.4227 37.5014 14.1948 36.2926 14.1269V14.1269Z" fill="url(#paint9_linear_167_24)"/>
<path style="mix-blend-mode:overlay" d="M32.0036 23.7939C32.7297 23.7931 33.453 23.8121 34.1735 23.8507L42.2344 17.0077C42.1551 16.4004 42.0101 16.2494 42.0069 16.2457C41.7826 16.0327 41.5631 15.8259 41.3154 15.6287C38.2443 18.1776 34.7297 21.1336 31.5723 23.799C31.7163 23.7971 31.8574 23.7941 32.0036 23.7939Z" fill="url(#paint10_linear_167_24)"/>
</g>
<g style="mix-blend-mode:overlay">
<path style="mix-blend-mode:overlay" d="M32.1883 41.3164C31.2742 41.3179 30.4449 41.2933 29.6797 41.2554L27.8207 49.3857C28.7617 49.5461 29.7114 49.6499 30.6648 49.6966L32.7757 41.3078C32.5813 41.3105 32.3882 41.3131 32.1883 41.3164Z" fill="url(#paint11_linear_167_24)"/>
<path style="mix-blend-mode:overlay" d="M36.2684 41.1237C35.7735 41.1728 35.2395 41.2145 34.6618 41.2464L32.723 49.7282C33.209 49.7184 33.6761 49.6987 34.1185 49.6669L36.2684 41.1237Z" fill="url(#paint12_linear_167_24)"/>
</g>
<path d="M22.2788 6.57195C22.2788 6.57195 23.8455 3.08017 26.2506 2.83134C26.2506 2.83134 25.6868 1.24539 24.4075 1.97447C23.1282 2.70355 22.2788 6.57195 22.2788 6.57195Z" fill="url(#paint13_linear_167_24)"/>
<path d="M42.2123 6.53125C42.2123 6.53125 40.6301 3.04548 38.2231 2.80592C38.2231 2.80592 38.7799 1.2177 40.0621 1.9432C41.3444 2.66869 42.2123 6.53125 42.2123 6.53125Z" fill="url(#paint14_linear_167_24)"/>
</g>
<defs>
<linearGradient id="paint0_linear_167_24" x1="2327.7" y1="-1832.52" x2="2313.83" y2="-1843.36" gradientUnits="userSpaceOnUse">
<stop stop-color="white"/>
<stop offset="1" stop-color="#9EA9B5"/>
</linearGradient>
<linearGradient id="paint1_linear_167_24" x1="2324.07" y1="-1822.27" x2="2336.71" y2="-1838.45" gradientUnits="userSpaceOnUse">
<stop offset="0.005" stop-color="#08090E"/>
<stop offset="0.459" stop-color="#12121C"/>
<stop offset="1" stop-color="#232234"/>
</linearGradient>
<linearGradient id="paint2_linear_167_24" x1="2350.3" y1="-1802.66" x2="2362.38" y2="-1818.13" gradientUnits="userSpaceOnUse">
<stop offset="0.019" stop-color="white"/>
<stop offset="0.149" stop-color="#E3E9EC" stop-opacity="0.89"/>
<stop offset="0.43" stop-color="#9CB0BD" stop-opacity="0.616"/>
<stop offset="0.837" stop-color="#2D5873" stop-opacity="0.176"/>
<stop offset="0.995" stop-color="#003455" stop-opacity="0"/>
</linearGradient>
<linearGradient id="paint3_linear_167_24" x1="2323.94" y1="-1816.56" x2="2325.55" y2="-1815.73" gradientUnits="userSpaceOnUse">
<stop stop-color="white"/>
<stop offset="1" stop-color="#9EA9B5"/>
</linearGradient>
<linearGradient id="paint4_linear_167_24" x1="2327.32" y1="-1813.11" x2="2329.3" y2="-1815.65" gradientUnits="userSpaceOnUse">
<stop offset="0.005" stop-color="#08090E"/>
<stop offset="0.459" stop-color="#12121C"/>
<stop offset="1" stop-color="#232234"/>
</linearGradient>
<linearGradient id="paint5_linear_167_24" x1="-1016.57" y1="2462.28" x2="-1015.3" y2="2461.18" gradientUnits="userSpaceOnUse">
<stop stop-color="white"/>
<stop offset="1" stop-color="#9EA9B5"/>
</linearGradient>
<linearGradient id="paint6_linear_167_24" x1="-1029.23" y1="2484.03" x2="-1027.25" y2="2481.5" gradientUnits="userSpaceOnUse">
<stop offset="0.005" stop-color="#08090E"/>
<stop offset="0.459" stop-color="#12121C"/>
<stop offset="1" stop-color="#232234"/>
</linearGradient>
<linearGradient id="paint7_linear_167_24" x1="2345.56" y1="-1808.39" x2="2356.47" y2="-1822.35" gradientUnits="userSpaceOnUse">
<stop offset="0.005" stop-color="#08090E"/>
<stop offset="0.459" stop-color="#12121C"/>
<stop offset="1" stop-color="#232234"/>
</linearGradient>
<linearGradient id="paint8_linear_167_24" x1="2313.48" y1="-1847.6" x2="2315.25" y2="-1839.73" gradientUnits="userSpaceOnUse">
<stop offset="0.005" stop-color="#08090E"/>
<stop offset="0.459" stop-color="#12121C"/>
<stop offset="1" stop-color="#232234"/>
</linearGradient>
<linearGradient id="paint9_linear_167_24" x1="2328.52" y1="-1831.71" x2="2344.65" y2="-1819.1" gradientUnits="userSpaceOnUse">
<stop offset="0.019" stop-color="white"/>
<stop offset="0.149" stop-color="#E3E9EC" stop-opacity="0.89"/>
<stop offset="0.43" stop-color="#9CB0BD" stop-opacity="0.616"/>
<stop offset="0.837" stop-color="#2D5873" stop-opacity="0.176"/>
<stop offset="0.995" stop-color="#003455" stop-opacity="0"/>
</linearGradient>
<linearGradient id="paint10_linear_167_24" x1="2331.93" y1="-1835.44" x2="2348.08" y2="-1822.82" gradientUnits="userSpaceOnUse">
<stop offset="0.019" stop-color="white"/>
<stop offset="0.149" stop-color="#E3E9EC" stop-opacity="0.89"/>
<stop offset="0.43" stop-color="#9CB0BD" stop-opacity="0.616"/>
<stop offset="0.837" stop-color="#2D5873" stop-opacity="0.176"/>
<stop offset="0.995" stop-color="#003455" stop-opacity="0"/>
</linearGradient>
<linearGradient id="paint11_linear_167_24" x1="2345.01" y1="-1817.6" x2="2358.92" y2="-1805.76" gradientUnits="userSpaceOnUse">
<stop offset="0.019" stop-color="white"/>
<stop offset="0.149" stop-color="#E3E9EC" stop-opacity="0.89"/>
<stop offset="0.43" stop-color="#9CB0BD" stop-opacity="0.616"/>
<stop offset="0.837" stop-color="#2D5873" stop-opacity="0.176"/>
<stop offset="0.995" stop-color="#003455" stop-opacity="0"/>
</linearGradient>
<linearGradient id="paint12_linear_167_24" x1="2347.97" y1="-1820.62" x2="2362.02" y2="-1808.97" gradientUnits="userSpaceOnUse">
<stop offset="0.019" stop-color="white"/>
<stop offset="0.149" stop-color="#E3E9EC" stop-opacity="0.89"/>
<stop offset="0.43" stop-color="#9CB0BD" stop-opacity="0.616"/>
<stop offset="0.837" stop-color="#2D5873" stop-opacity="0.176"/>
<stop offset="0.995" stop-color="#003455" stop-opacity="0"/>
</linearGradient>
<linearGradient id="paint13_linear_167_24" x1="2311.91" y1="-1835.24" x2="2315.83" y2="-1832.09" gradientUnits="userSpaceOnUse">
<stop stop-color="#E4E2E0"/>
<stop offset="0.053" stop-color="#D5D3D2"/>
<stop offset="0.155" stop-color="#B0ACAF"/>
<stop offset="0.264" stop-color="#837C84"/>
<stop offset="0.522" stop-color="#F9F9FA"/>
<stop offset="0.579" stop-color="#EAEAEB"/>
<stop offset="0.686" stop-color="#C5C3C5"/>
<stop offset="0.833" stop-color="#8A8489"/>
<stop offset="0.876" stop-color="#787176"/>
<stop offset="1" stop-color="#A09FA6"/>
</linearGradient>
<linearGradient id="paint14_linear_167_24" x1="-877.471" y1="2246.97" x2="-875.81" y2="2251.24" gradientUnits="userSpaceOnUse">
<stop stop-color="#E4E2E0"/>
<stop offset="0.053" stop-color="#D5D3D2"/>
<stop offset="0.155" stop-color="#B0ACAF"/>
<stop offset="0.264" stop-color="#837C84"/>
<stop offset="0.522" stop-color="#F9F9FA"/>
<stop offset="0.579" stop-color="#EAEAEB"/>
<stop offset="0.686" stop-color="#C5C3C5"/>
<stop offset="0.833" stop-color="#8A8489"/>
<stop offset="0.876" stop-color="#787176"/>
<stop offset="1" stop-color="#A09FA6"/>
</linearGradient>
<clipPath id="clip0_167_24">
<rect width="60.456" height="55.759" fill="white"/>
</clipPath>
</defs>
</svg>
