<svg width="60" height="60" viewBox="0 0 60 60" fill="none" xmlns="http://www.w3.org/2000/svg">
<g clip-path="url(#clip0_176_37)">
<g filter="url(#filter0_d_176_37)">
<path d="M25.4056 50.4831C39.2555 50.4831 50.4831 39.2555 50.4831 25.4056C50.4831 11.5557 39.2555 0.328186 25.4056 0.328186C11.5557 0.328186 0.328186 11.5557 0.328186 25.4056C0.328186 39.2555 11.5557 50.4831 25.4056 50.4831Z" fill="#191919"/>
</g>
<path d="M32.9417 20.0223C32.9402 19.4517 32.7128 18.9049 32.3093 18.5014C31.9058 18.0978 31.3589 17.8705 30.7883 17.8689H27.5584V20.0223H30.7883V22.8755L27.0439 27.5584H23.2522V22.1765H18.9453C18.3798 22.1764 17.8199 22.2877 17.2974 22.504C16.775 22.7204 16.3002 23.0375 15.9003 23.4373C15.5005 23.8371 15.1833 24.3118 14.9668 24.8342C14.7504 25.3566 14.639 25.9166 14.639 26.482V29.7119H16.7925C16.7925 30.5685 17.1328 31.39 17.7385 31.9957C18.3442 32.6015 19.1657 32.9418 20.0223 32.9418C20.879 32.9418 21.7005 32.6015 22.3062 31.9957C22.9119 31.39 23.2522 30.5685 23.2522 29.7119H28.0756L32.9417 23.6289V20.0223ZM20.021 30.7883C19.7358 30.7874 19.4625 30.6737 19.2609 30.4721C19.0592 30.2704 18.9455 29.9971 18.9446 29.7119H21.0981C21.0972 29.9972 20.9834 30.2706 20.7816 30.4723C20.5798 30.674 20.3064 30.7876 20.021 30.7883Z" fill="white"/>
<path d="M23.2266 19.1652H17.8938V21.3869H23.2266V19.1652Z" fill="white"/>
<path d="M32.9418 26.4821C32.303 26.4821 31.6785 26.6715 31.1474 27.0264C30.6162 27.3813 30.2022 27.8857 29.9578 28.4759C29.7133 29.0661 29.6494 29.7155 29.774 30.342C29.8986 30.9686 30.2062 31.5441 30.6579 31.9958C31.1096 32.4475 31.6851 32.7551 32.3117 32.8797C32.9382 33.0043 33.5876 32.9404 34.1778 32.6959C34.768 32.4514 35.2724 32.0375 35.6273 31.5063C35.9822 30.9752 36.1716 30.3507 36.1716 29.7119C36.1722 29.2876 36.0891 28.8673 35.927 28.4752C35.7649 28.083 35.527 27.7268 35.227 27.4267C34.9269 27.1267 34.5706 26.8888 34.1785 26.7267C33.7864 26.5646 33.3661 26.4815 32.9418 26.4821V26.4821ZM32.9418 30.7883C32.7289 30.7883 32.5208 30.7252 32.3438 30.6069C32.1667 30.4886 32.0288 30.3205 31.9473 30.1238C31.8658 29.9271 31.8445 29.7107 31.8861 29.5019C31.9276 29.2931 32.0301 29.1013 32.1806 28.9508C32.3312 28.8002 32.523 28.6977 32.7318 28.6562C32.9406 28.6147 33.157 28.636 33.3537 28.7174C33.5504 28.7989 33.7185 28.9369 33.8368 29.1139C33.955 29.2909 34.0182 29.499 34.0182 29.7119C34.0173 29.9971 33.9036 30.2704 33.7019 30.4721C33.5003 30.6738 33.227 30.7874 32.9418 30.7883V30.7883Z" fill="white"/>
</g>
<defs>
<filter id="filter0_d_176_37" x="0.328186" y="0.328186" width="62.1549" height="62.1549" filterUnits="userSpaceOnUse" color-interpolation-filters="sRGB">
<feFlood flood-opacity="0" result="BackgroundImageFix"/>
<feColorMatrix in="SourceAlpha" type="matrix" values="0 0 0 0 0 0 0 0 0 0 0 0 0 0 0 0 0 0 127 0" result="hardAlpha"/>
<feOffset dx="7" dy="7"/>
<feGaussianBlur stdDeviation="2.5"/>
<feColorMatrix type="matrix" values="0 0 0 0 0.00392157 0 0 0 0 0.00392157 0 0 0 0 0.00392157 0 0 0 0.212 0"/>
<feBlend mode="normal" in2="BackgroundImageFix" result="effect1_dropShadow_176_37"/>
<feBlend mode="normal" in="SourceGraphic" in2="effect1_dropShadow_176_37" result="shape"/>
</filter>
<clipPath id="clip0_176_37">
<rect width="60" height="60" fill="white"/>
</clipPath>
</defs>
</svg>
